<mxfile host="app.diagrams.net" modified="2023-11-24T12:06:27.179Z" agent="Mozilla/5.0 (Macintosh; Intel Mac OS X 10_15_7) AppleWebKit/537.36 (KHTML, like Gecko) Chrome/117.0.0.0 Safari/537.36" etag="vJ8wuTEV2fRimTK4MUFZ" version="22.1.3" type="device" pages="4">
  <diagram name="2NF" id="D1g6QFaplDrw85mG8-SS">
    <mxGraphModel dx="762" dy="523" grid="1" gridSize="10" guides="1" tooltips="1" connect="1" arrows="1" fold="1" page="1" pageScale="1" pageWidth="850" pageHeight="1100" math="0" shadow="0">
      <root>
        <mxCell id="0" />
        <mxCell id="1" parent="0" />
        <mxCell id="BtLXYyUbLLqB_iaHzUwe-35" style="edgeStyle=orthogonalEdgeStyle;rounded=0;orthogonalLoop=1;jettySize=auto;html=1;exitX=1;exitY=0.5;exitDx=0;exitDy=0;entryX=0;entryY=0.5;entryDx=0;entryDy=0;" parent="1" source="BtLXYyUbLLqB_iaHzUwe-32" target="BtLXYyUbLLqB_iaHzUwe-27" edge="1">
          <mxGeometry relative="1" as="geometry" />
        </mxCell>
        <mxCell id="BtLXYyUbLLqB_iaHzUwe-32" value="" style="rounded=0;whiteSpace=wrap;html=1;" parent="1" vertex="1">
          <mxGeometry x="210" y="330" width="50" height="110" as="geometry" />
        </mxCell>
        <mxCell id="BtLXYyUbLLqB_iaHzUwe-1" value="" style="shape=table;startSize=0;container=1;collapsible=0;childLayout=tableLayout;" parent="1" vertex="1">
          <mxGeometry x="90" y="100" width="180" height="30" as="geometry" />
        </mxCell>
        <mxCell id="BtLXYyUbLLqB_iaHzUwe-2" value="" style="shape=tableRow;horizontal=0;startSize=0;swimlaneHead=0;swimlaneBody=0;strokeColor=inherit;top=0;left=0;bottom=0;right=0;collapsible=0;dropTarget=0;fillColor=none;points=[[0,0.5],[1,0.5]];portConstraint=eastwest;" parent="BtLXYyUbLLqB_iaHzUwe-1" vertex="1">
          <mxGeometry width="180" height="30" as="geometry" />
        </mxCell>
        <mxCell id="BtLXYyUbLLqB_iaHzUwe-3" value="&lt;u&gt;A&lt;/u&gt;" style="shape=partialRectangle;html=1;whiteSpace=wrap;connectable=0;strokeColor=inherit;overflow=hidden;fillColor=none;top=0;left=0;bottom=0;right=0;pointerEvents=1;" parent="BtLXYyUbLLqB_iaHzUwe-2" vertex="1">
          <mxGeometry width="60" height="30" as="geometry">
            <mxRectangle width="60" height="30" as="alternateBounds" />
          </mxGeometry>
        </mxCell>
        <mxCell id="BtLXYyUbLLqB_iaHzUwe-4" value="&lt;u&gt;B&lt;/u&gt;" style="shape=partialRectangle;html=1;whiteSpace=wrap;connectable=0;strokeColor=inherit;overflow=hidden;fillColor=none;top=0;left=0;bottom=0;right=0;pointerEvents=1;" parent="BtLXYyUbLLqB_iaHzUwe-2" vertex="1">
          <mxGeometry x="60" width="60" height="30" as="geometry">
            <mxRectangle width="60" height="30" as="alternateBounds" />
          </mxGeometry>
        </mxCell>
        <mxCell id="BtLXYyUbLLqB_iaHzUwe-5" value="C" style="shape=partialRectangle;html=1;whiteSpace=wrap;connectable=0;strokeColor=inherit;overflow=hidden;fillColor=none;top=0;left=0;bottom=0;right=0;pointerEvents=1;" parent="BtLXYyUbLLqB_iaHzUwe-2" vertex="1">
          <mxGeometry x="120" width="60" height="30" as="geometry">
            <mxRectangle width="60" height="30" as="alternateBounds" />
          </mxGeometry>
        </mxCell>
        <mxCell id="BtLXYyUbLLqB_iaHzUwe-18" value="" style="endArrow=classic;html=1;rounded=0;exitX=0.831;exitY=0.998;exitDx=0;exitDy=0;exitPerimeter=0;entryX=0.5;entryY=0.978;entryDx=0;entryDy=0;entryPerimeter=0;" parent="BtLXYyUbLLqB_iaHzUwe-1" source="BtLXYyUbLLqB_iaHzUwe-2" target="BtLXYyUbLLqB_iaHzUwe-2" edge="1">
          <mxGeometry width="50" height="50" relative="1" as="geometry">
            <mxPoint x="149.76" y="31.980000000000018" as="sourcePoint" />
            <mxPoint x="80" y="60" as="targetPoint" />
            <Array as="points">
              <mxPoint x="150" y="60" />
              <mxPoint x="90" y="60" />
            </Array>
          </mxGeometry>
        </mxCell>
        <mxCell id="BtLXYyUbLLqB_iaHzUwe-6" value="" style="shape=table;startSize=0;container=1;collapsible=0;childLayout=tableLayout;" parent="1" vertex="1">
          <mxGeometry x="350" y="100" width="180" height="30" as="geometry" />
        </mxCell>
        <mxCell id="BtLXYyUbLLqB_iaHzUwe-7" value="" style="shape=tableRow;horizontal=0;startSize=0;swimlaneHead=0;swimlaneBody=0;strokeColor=inherit;top=0;left=0;bottom=0;right=0;collapsible=0;dropTarget=0;fillColor=none;points=[[0,0.5],[1,0.5]];portConstraint=eastwest;" parent="BtLXYyUbLLqB_iaHzUwe-6" vertex="1">
          <mxGeometry width="180" height="30" as="geometry" />
        </mxCell>
        <mxCell id="BtLXYyUbLLqB_iaHzUwe-8" value="&lt;u&gt;A&lt;/u&gt;" style="shape=partialRectangle;html=1;whiteSpace=wrap;connectable=0;strokeColor=inherit;overflow=hidden;fillColor=none;top=0;left=0;bottom=0;right=0;pointerEvents=1;" parent="BtLXYyUbLLqB_iaHzUwe-7" vertex="1">
          <mxGeometry width="60" height="30" as="geometry">
            <mxRectangle width="60" height="30" as="alternateBounds" />
          </mxGeometry>
        </mxCell>
        <mxCell id="BtLXYyUbLLqB_iaHzUwe-9" value="D" style="shape=partialRectangle;html=1;whiteSpace=wrap;connectable=0;strokeColor=inherit;overflow=hidden;fillColor=none;top=0;left=0;bottom=0;right=0;pointerEvents=1;" parent="BtLXYyUbLLqB_iaHzUwe-7" vertex="1">
          <mxGeometry x="60" width="60" height="30" as="geometry">
            <mxRectangle width="60" height="30" as="alternateBounds" />
          </mxGeometry>
        </mxCell>
        <mxCell id="BtLXYyUbLLqB_iaHzUwe-10" value="E" style="shape=partialRectangle;html=1;whiteSpace=wrap;connectable=0;strokeColor=inherit;overflow=hidden;fillColor=none;top=0;left=0;bottom=0;right=0;pointerEvents=1;" parent="BtLXYyUbLLqB_iaHzUwe-7" vertex="1">
          <mxGeometry x="120" width="60" height="30" as="geometry">
            <mxRectangle width="60" height="30" as="alternateBounds" />
          </mxGeometry>
        </mxCell>
        <mxCell id="BtLXYyUbLLqB_iaHzUwe-11" value="" style="shape=table;startSize=0;container=1;collapsible=0;childLayout=tableLayout;" parent="1" vertex="1">
          <mxGeometry x="90" y="190" width="240" height="30" as="geometry" />
        </mxCell>
        <mxCell id="BtLXYyUbLLqB_iaHzUwe-12" value="" style="shape=tableRow;horizontal=0;startSize=0;swimlaneHead=0;swimlaneBody=0;strokeColor=inherit;top=0;left=0;bottom=0;right=0;collapsible=0;dropTarget=0;fillColor=none;points=[[0,0.5],[1,0.5]];portConstraint=eastwest;" parent="BtLXYyUbLLqB_iaHzUwe-11" vertex="1">
          <mxGeometry width="240" height="30" as="geometry" />
        </mxCell>
        <mxCell id="BtLXYyUbLLqB_iaHzUwe-13" value="&lt;u&gt;B&lt;/u&gt;" style="shape=partialRectangle;html=1;whiteSpace=wrap;connectable=0;strokeColor=inherit;overflow=hidden;fillColor=none;top=0;left=0;bottom=0;right=0;pointerEvents=1;" parent="BtLXYyUbLLqB_iaHzUwe-12" vertex="1">
          <mxGeometry width="60" height="30" as="geometry">
            <mxRectangle width="60" height="30" as="alternateBounds" />
          </mxGeometry>
        </mxCell>
        <mxCell id="BtLXYyUbLLqB_iaHzUwe-14" value="F" style="shape=partialRectangle;html=1;whiteSpace=wrap;connectable=0;strokeColor=inherit;overflow=hidden;fillColor=none;top=0;left=0;bottom=0;right=0;pointerEvents=1;" parent="BtLXYyUbLLqB_iaHzUwe-12" vertex="1">
          <mxGeometry x="60" width="60" height="30" as="geometry">
            <mxRectangle width="60" height="30" as="alternateBounds" />
          </mxGeometry>
        </mxCell>
        <mxCell id="BtLXYyUbLLqB_iaHzUwe-15" value="G" style="shape=partialRectangle;html=1;whiteSpace=wrap;connectable=0;strokeColor=inherit;overflow=hidden;fillColor=none;top=0;left=0;bottom=0;right=0;pointerEvents=1;" parent="BtLXYyUbLLqB_iaHzUwe-12" vertex="1">
          <mxGeometry x="120" width="60" height="30" as="geometry">
            <mxRectangle width="60" height="30" as="alternateBounds" />
          </mxGeometry>
        </mxCell>
        <mxCell id="BtLXYyUbLLqB_iaHzUwe-16" value="H" style="shape=partialRectangle;html=1;whiteSpace=wrap;connectable=0;strokeColor=inherit;overflow=hidden;fillColor=none;top=0;left=0;bottom=0;right=0;pointerEvents=1;" parent="BtLXYyUbLLqB_iaHzUwe-12" vertex="1">
          <mxGeometry x="180" width="60" height="30" as="geometry">
            <mxRectangle width="60" height="30" as="alternateBounds" />
          </mxGeometry>
        </mxCell>
        <mxCell id="BtLXYyUbLLqB_iaHzUwe-20" value="" style="endArrow=classic;html=1;rounded=0;exitX=0.376;exitY=0.991;exitDx=0;exitDy=0;exitPerimeter=0;entryX=0.876;entryY=0.991;entryDx=0;entryDy=0;entryPerimeter=0;" parent="BtLXYyUbLLqB_iaHzUwe-11" source="BtLXYyUbLLqB_iaHzUwe-12" target="BtLXYyUbLLqB_iaHzUwe-12" edge="1">
          <mxGeometry width="50" height="50" relative="1" as="geometry">
            <mxPoint x="140" y="60" as="sourcePoint" />
            <mxPoint x="190" y="10" as="targetPoint" />
            <Array as="points">
              <mxPoint x="90" y="70" />
              <mxPoint x="210" y="70" />
            </Array>
          </mxGeometry>
        </mxCell>
        <mxCell id="BtLXYyUbLLqB_iaHzUwe-17" value="" style="endArrow=classic;html=1;rounded=0;entryX=0.167;entryY=-0.007;entryDx=0;entryDy=0;entryPerimeter=0;" parent="1" target="BtLXYyUbLLqB_iaHzUwe-7" edge="1">
          <mxGeometry width="50" height="50" relative="1" as="geometry">
            <mxPoint x="120" y="100" as="sourcePoint" />
            <mxPoint x="380" y="98" as="targetPoint" />
            <Array as="points">
              <mxPoint x="120" y="50" />
              <mxPoint x="380" y="50" />
            </Array>
          </mxGeometry>
        </mxCell>
        <mxCell id="BtLXYyUbLLqB_iaHzUwe-19" value="" style="endArrow=classic;html=1;rounded=0;entryX=0.125;entryY=-0.04;entryDx=0;entryDy=0;entryPerimeter=0;" parent="1" target="BtLXYyUbLLqB_iaHzUwe-12" edge="1">
          <mxGeometry width="50" height="50" relative="1" as="geometry">
            <mxPoint x="180" y="100" as="sourcePoint" />
            <mxPoint x="130" y="170" as="targetPoint" />
            <Array as="points">
              <mxPoint x="180" y="70" />
              <mxPoint x="70" y="70" />
              <mxPoint x="70" y="170" />
              <mxPoint x="120" y="170" />
            </Array>
          </mxGeometry>
        </mxCell>
        <mxCell id="BtLXYyUbLLqB_iaHzUwe-21" value="" style="endArrow=classic;html=1;rounded=0;entryX=0.625;entryY=0.999;entryDx=0;entryDy=0;entryPerimeter=0;" parent="1" target="BtLXYyUbLLqB_iaHzUwe-12" edge="1">
          <mxGeometry width="50" height="50" relative="1" as="geometry">
            <mxPoint x="240" y="260" as="sourcePoint" />
            <mxPoint x="250" y="210" as="targetPoint" />
          </mxGeometry>
        </mxCell>
        <mxCell id="BtLXYyUbLLqB_iaHzUwe-33" style="rounded=0;orthogonalLoop=1;jettySize=auto;html=1;exitX=0;exitY=0.5;exitDx=0;exitDy=0;entryX=1;entryY=0.5;entryDx=0;entryDy=0;endArrow=doubleBlock;endFill=0;" parent="1" source="BtLXYyUbLLqB_iaHzUwe-24" target="BtLXYyUbLLqB_iaHzUwe-22" edge="1">
          <mxGeometry relative="1" as="geometry" />
        </mxCell>
        <mxCell id="BtLXYyUbLLqB_iaHzUwe-22" value="D" style="rounded=0;whiteSpace=wrap;html=1;" parent="1" vertex="1">
          <mxGeometry x="60" y="340" width="30" height="30" as="geometry" />
        </mxCell>
        <mxCell id="BtLXYyUbLLqB_iaHzUwe-23" value="E" style="rounded=0;whiteSpace=wrap;html=1;" parent="1" vertex="1">
          <mxGeometry x="60" y="400" width="30" height="30" as="geometry" />
        </mxCell>
        <mxCell id="BtLXYyUbLLqB_iaHzUwe-34" style="rounded=0;orthogonalLoop=1;jettySize=auto;html=1;exitX=0;exitY=0.5;exitDx=0;exitDy=0;entryX=1;entryY=0.5;entryDx=0;entryDy=0;endArrow=doubleBlock;endFill=0;" parent="1" source="BtLXYyUbLLqB_iaHzUwe-24" target="BtLXYyUbLLqB_iaHzUwe-23" edge="1">
          <mxGeometry relative="1" as="geometry" />
        </mxCell>
        <mxCell id="BtLXYyUbLLqB_iaHzUwe-24" value="A" style="rounded=0;whiteSpace=wrap;html=1;" parent="1" vertex="1">
          <mxGeometry x="130" y="370" width="30" height="30" as="geometry" />
        </mxCell>
        <mxCell id="BtLXYyUbLLqB_iaHzUwe-25" value="A" style="rounded=0;whiteSpace=wrap;html=1;" parent="1" vertex="1">
          <mxGeometry x="220" y="340" width="30" height="30" as="geometry" />
        </mxCell>
        <mxCell id="BtLXYyUbLLqB_iaHzUwe-26" value="B" style="rounded=0;whiteSpace=wrap;html=1;" parent="1" vertex="1">
          <mxGeometry x="220" y="400" width="30" height="30" as="geometry" />
        </mxCell>
        <mxCell id="BtLXYyUbLLqB_iaHzUwe-36" style="rounded=0;orthogonalLoop=1;jettySize=auto;html=1;exitX=0;exitY=0.5;exitDx=0;exitDy=0;entryX=1;entryY=0.5;entryDx=0;entryDy=0;" parent="1" source="BtLXYyUbLLqB_iaHzUwe-27" target="BtLXYyUbLLqB_iaHzUwe-26" edge="1">
          <mxGeometry relative="1" as="geometry" />
        </mxCell>
        <mxCell id="BtLXYyUbLLqB_iaHzUwe-27" value="C" style="rounded=0;whiteSpace=wrap;html=1;" parent="1" vertex="1">
          <mxGeometry x="300" y="370" width="30" height="30" as="geometry" />
        </mxCell>
        <mxCell id="BtLXYyUbLLqB_iaHzUwe-37" style="edgeStyle=orthogonalEdgeStyle;rounded=0;orthogonalLoop=1;jettySize=auto;html=1;exitX=1;exitY=0.5;exitDx=0;exitDy=0;entryX=0;entryY=0.5;entryDx=0;entryDy=0;" parent="1" source="BtLXYyUbLLqB_iaHzUwe-28" target="BtLXYyUbLLqB_iaHzUwe-29" edge="1">
          <mxGeometry relative="1" as="geometry" />
        </mxCell>
        <mxCell id="BtLXYyUbLLqB_iaHzUwe-28" value="B" style="rounded=0;whiteSpace=wrap;html=1;" parent="1" vertex="1">
          <mxGeometry x="380" y="370" width="30" height="30" as="geometry" />
        </mxCell>
        <mxCell id="BtLXYyUbLLqB_iaHzUwe-38" style="rounded=0;orthogonalLoop=1;jettySize=auto;html=1;exitX=1;exitY=0.5;exitDx=0;exitDy=0;entryX=0;entryY=0.5;entryDx=0;entryDy=0;" parent="1" source="BtLXYyUbLLqB_iaHzUwe-29" target="BtLXYyUbLLqB_iaHzUwe-30" edge="1">
          <mxGeometry relative="1" as="geometry" />
        </mxCell>
        <mxCell id="BtLXYyUbLLqB_iaHzUwe-39" style="rounded=0;orthogonalLoop=1;jettySize=auto;html=1;exitX=1;exitY=0.5;exitDx=0;exitDy=0;entryX=0;entryY=0.5;entryDx=0;entryDy=0;" parent="1" source="BtLXYyUbLLqB_iaHzUwe-29" target="BtLXYyUbLLqB_iaHzUwe-31" edge="1">
          <mxGeometry relative="1" as="geometry" />
        </mxCell>
        <mxCell id="BtLXYyUbLLqB_iaHzUwe-29" value="F" style="rounded=0;whiteSpace=wrap;html=1;" parent="1" vertex="1">
          <mxGeometry x="440" y="370" width="30" height="30" as="geometry" />
        </mxCell>
        <mxCell id="BtLXYyUbLLqB_iaHzUwe-41" style="edgeStyle=orthogonalEdgeStyle;rounded=0;orthogonalLoop=1;jettySize=auto;html=1;entryX=0.5;entryY=0;entryDx=0;entryDy=0;" parent="1" source="BtLXYyUbLLqB_iaHzUwe-30" target="BtLXYyUbLLqB_iaHzUwe-31" edge="1">
          <mxGeometry relative="1" as="geometry" />
        </mxCell>
        <mxCell id="BtLXYyUbLLqB_iaHzUwe-30" value="H" style="rounded=0;whiteSpace=wrap;html=1;" parent="1" vertex="1">
          <mxGeometry x="520" y="330" width="30" height="30" as="geometry" />
        </mxCell>
        <mxCell id="BtLXYyUbLLqB_iaHzUwe-31" value="G" style="rounded=0;whiteSpace=wrap;html=1;" parent="1" vertex="1">
          <mxGeometry x="520" y="410" width="30" height="30" as="geometry" />
        </mxCell>
        <mxCell id="Aep0SoxQfgIqR3ehkUPL-1" value="2NF:" style="text;html=1;align=center;verticalAlign=middle;resizable=0;points=[];autosize=1;strokeColor=none;fillColor=none;" parent="1" vertex="1">
          <mxGeometry x="20" y="10" width="50" height="30" as="geometry" />
        </mxCell>
      </root>
    </mxGraphModel>
  </diagram>
  <diagram id="F54T1gcmNdFEcM4KcMlP" name="3NF">
    <mxGraphModel dx="726" dy="498" grid="1" gridSize="10" guides="1" tooltips="1" connect="1" arrows="1" fold="1" page="1" pageScale="1" pageWidth="850" pageHeight="1100" math="0" shadow="0">
      <root>
        <mxCell id="0" />
        <mxCell id="1" parent="0" />
        <mxCell id="x_SATtWNZ_-E867AaamW-1" style="edgeStyle=orthogonalEdgeStyle;rounded=0;orthogonalLoop=1;jettySize=auto;html=1;exitX=1;exitY=0.5;exitDx=0;exitDy=0;entryX=0;entryY=0.5;entryDx=0;entryDy=0;" parent="1" source="x_SATtWNZ_-E867AaamW-2" target="x_SATtWNZ_-E867AaamW-32" edge="1">
          <mxGeometry relative="1" as="geometry" />
        </mxCell>
        <mxCell id="x_SATtWNZ_-E867AaamW-2" value="" style="rounded=0;whiteSpace=wrap;html=1;" parent="1" vertex="1">
          <mxGeometry x="210" y="330" width="50" height="110" as="geometry" />
        </mxCell>
        <mxCell id="x_SATtWNZ_-E867AaamW-3" value="" style="shape=table;startSize=0;container=1;collapsible=0;childLayout=tableLayout;" parent="1" vertex="1">
          <mxGeometry x="10" y="100" width="180" height="30" as="geometry" />
        </mxCell>
        <mxCell id="x_SATtWNZ_-E867AaamW-4" value="" style="shape=tableRow;horizontal=0;startSize=0;swimlaneHead=0;swimlaneBody=0;strokeColor=inherit;top=0;left=0;bottom=0;right=0;collapsible=0;dropTarget=0;fillColor=none;points=[[0,0.5],[1,0.5]];portConstraint=eastwest;" parent="x_SATtWNZ_-E867AaamW-3" vertex="1">
          <mxGeometry width="180" height="30" as="geometry" />
        </mxCell>
        <mxCell id="x_SATtWNZ_-E867AaamW-5" value="&lt;u&gt;A&lt;/u&gt;" style="shape=partialRectangle;html=1;whiteSpace=wrap;connectable=0;strokeColor=inherit;overflow=hidden;fillColor=none;top=0;left=0;bottom=0;right=0;pointerEvents=1;" parent="x_SATtWNZ_-E867AaamW-4" vertex="1">
          <mxGeometry width="60" height="30" as="geometry">
            <mxRectangle width="60" height="30" as="alternateBounds" />
          </mxGeometry>
        </mxCell>
        <mxCell id="x_SATtWNZ_-E867AaamW-6" value="&lt;u&gt;B&lt;/u&gt;" style="shape=partialRectangle;html=1;whiteSpace=wrap;connectable=0;strokeColor=inherit;overflow=hidden;fillColor=none;top=0;left=0;bottom=0;right=0;pointerEvents=1;" parent="x_SATtWNZ_-E867AaamW-4" vertex="1">
          <mxGeometry x="60" width="60" height="30" as="geometry">
            <mxRectangle width="60" height="30" as="alternateBounds" />
          </mxGeometry>
        </mxCell>
        <mxCell id="x_SATtWNZ_-E867AaamW-7" value="C" style="shape=partialRectangle;html=1;whiteSpace=wrap;connectable=0;strokeColor=inherit;overflow=hidden;fillColor=none;top=0;left=0;bottom=0;right=0;pointerEvents=1;" parent="x_SATtWNZ_-E867AaamW-4" vertex="1">
          <mxGeometry x="120" width="60" height="30" as="geometry">
            <mxRectangle width="60" height="30" as="alternateBounds" />
          </mxGeometry>
        </mxCell>
        <mxCell id="x_SATtWNZ_-E867AaamW-9" value="" style="shape=table;startSize=0;container=1;collapsible=0;childLayout=tableLayout;" parent="1" vertex="1">
          <mxGeometry x="10" y="240" width="180" height="30" as="geometry" />
        </mxCell>
        <mxCell id="x_SATtWNZ_-E867AaamW-10" value="" style="shape=tableRow;horizontal=0;startSize=0;swimlaneHead=0;swimlaneBody=0;strokeColor=inherit;top=0;left=0;bottom=0;right=0;collapsible=0;dropTarget=0;fillColor=none;points=[[0,0.5],[1,0.5]];portConstraint=eastwest;" parent="x_SATtWNZ_-E867AaamW-9" vertex="1">
          <mxGeometry width="180" height="30" as="geometry" />
        </mxCell>
        <mxCell id="x_SATtWNZ_-E867AaamW-11" value="&lt;u&gt;A&lt;/u&gt;" style="shape=partialRectangle;html=1;whiteSpace=wrap;connectable=0;strokeColor=inherit;overflow=hidden;fillColor=none;top=0;left=0;bottom=0;right=0;pointerEvents=1;" parent="x_SATtWNZ_-E867AaamW-10" vertex="1">
          <mxGeometry width="60" height="30" as="geometry">
            <mxRectangle width="60" height="30" as="alternateBounds" />
          </mxGeometry>
        </mxCell>
        <mxCell id="x_SATtWNZ_-E867AaamW-12" value="D" style="shape=partialRectangle;html=1;whiteSpace=wrap;connectable=0;strokeColor=inherit;overflow=hidden;fillColor=none;top=0;left=0;bottom=0;right=0;pointerEvents=1;" parent="x_SATtWNZ_-E867AaamW-10" vertex="1">
          <mxGeometry x="60" width="60" height="30" as="geometry">
            <mxRectangle width="60" height="30" as="alternateBounds" />
          </mxGeometry>
        </mxCell>
        <mxCell id="x_SATtWNZ_-E867AaamW-13" value="E" style="shape=partialRectangle;html=1;whiteSpace=wrap;connectable=0;strokeColor=inherit;overflow=hidden;fillColor=none;top=0;left=0;bottom=0;right=0;pointerEvents=1;" parent="x_SATtWNZ_-E867AaamW-10" vertex="1">
          <mxGeometry x="120" width="60" height="30" as="geometry">
            <mxRectangle width="60" height="30" as="alternateBounds" />
          </mxGeometry>
        </mxCell>
        <mxCell id="x_SATtWNZ_-E867AaamW-24" style="rounded=0;orthogonalLoop=1;jettySize=auto;html=1;exitX=0;exitY=0.5;exitDx=0;exitDy=0;entryX=1;entryY=0.5;entryDx=0;entryDy=0;endArrow=doubleBlock;endFill=0;" parent="1" source="x_SATtWNZ_-E867AaamW-28" target="x_SATtWNZ_-E867AaamW-25" edge="1">
          <mxGeometry relative="1" as="geometry" />
        </mxCell>
        <mxCell id="x_SATtWNZ_-E867AaamW-25" value="D" style="rounded=0;whiteSpace=wrap;html=1;" parent="1" vertex="1">
          <mxGeometry x="60" y="340" width="30" height="30" as="geometry" />
        </mxCell>
        <mxCell id="x_SATtWNZ_-E867AaamW-26" value="E" style="rounded=0;whiteSpace=wrap;html=1;" parent="1" vertex="1">
          <mxGeometry x="60" y="400" width="30" height="30" as="geometry" />
        </mxCell>
        <mxCell id="x_SATtWNZ_-E867AaamW-27" style="rounded=0;orthogonalLoop=1;jettySize=auto;html=1;exitX=0;exitY=0.5;exitDx=0;exitDy=0;entryX=1;entryY=0.5;entryDx=0;entryDy=0;endArrow=doubleBlock;endFill=0;" parent="1" source="x_SATtWNZ_-E867AaamW-28" target="x_SATtWNZ_-E867AaamW-26" edge="1">
          <mxGeometry relative="1" as="geometry" />
        </mxCell>
        <mxCell id="x_SATtWNZ_-E867AaamW-28" value="A" style="rounded=0;whiteSpace=wrap;html=1;" parent="1" vertex="1">
          <mxGeometry x="130" y="370" width="30" height="30" as="geometry" />
        </mxCell>
        <mxCell id="x_SATtWNZ_-E867AaamW-29" value="A" style="rounded=0;whiteSpace=wrap;html=1;" parent="1" vertex="1">
          <mxGeometry x="220" y="340" width="30" height="30" as="geometry" />
        </mxCell>
        <mxCell id="x_SATtWNZ_-E867AaamW-30" value="B" style="rounded=0;whiteSpace=wrap;html=1;" parent="1" vertex="1">
          <mxGeometry x="220" y="400" width="30" height="30" as="geometry" />
        </mxCell>
        <mxCell id="x_SATtWNZ_-E867AaamW-32" value="C" style="rounded=0;whiteSpace=wrap;html=1;" parent="1" vertex="1">
          <mxGeometry x="300" y="370" width="30" height="30" as="geometry" />
        </mxCell>
        <mxCell id="x_SATtWNZ_-E867AaamW-33" style="edgeStyle=orthogonalEdgeStyle;rounded=0;orthogonalLoop=1;jettySize=auto;html=1;exitX=1;exitY=0.5;exitDx=0;exitDy=0;entryX=0;entryY=0.5;entryDx=0;entryDy=0;" parent="1" source="x_SATtWNZ_-E867AaamW-34" target="x_SATtWNZ_-E867AaamW-37" edge="1">
          <mxGeometry relative="1" as="geometry" />
        </mxCell>
        <mxCell id="x_SATtWNZ_-E867AaamW-34" value="B" style="rounded=0;whiteSpace=wrap;html=1;" parent="1" vertex="1">
          <mxGeometry x="390" y="330" width="30" height="30" as="geometry" />
        </mxCell>
        <mxCell id="x_SATtWNZ_-E867AaamW-35" style="rounded=0;orthogonalLoop=1;jettySize=auto;html=1;exitX=1;exitY=0.5;exitDx=0;exitDy=0;" parent="1" source="x_SATtWNZ_-E867AaamW-69" edge="1">
          <mxGeometry relative="1" as="geometry">
            <mxPoint x="440" y="410" as="sourcePoint" />
            <mxPoint x="470" y="405" as="targetPoint" />
          </mxGeometry>
        </mxCell>
        <mxCell id="x_SATtWNZ_-E867AaamW-37" value="F" style="rounded=0;whiteSpace=wrap;html=1;" parent="1" vertex="1">
          <mxGeometry x="470" y="330" width="30" height="30" as="geometry" />
        </mxCell>
        <mxCell id="x_SATtWNZ_-E867AaamW-40" value="G" style="rounded=0;whiteSpace=wrap;html=1;" parent="1" vertex="1">
          <mxGeometry x="470" y="450" width="30" height="30" as="geometry" />
        </mxCell>
        <mxCell id="x_SATtWNZ_-E867AaamW-41" value="" style="shape=table;startSize=0;container=1;collapsible=0;childLayout=tableLayout;" parent="1" vertex="1">
          <mxGeometry x="240" y="100" width="120" height="30" as="geometry" />
        </mxCell>
        <mxCell id="x_SATtWNZ_-E867AaamW-42" value="" style="shape=tableRow;horizontal=0;startSize=0;swimlaneHead=0;swimlaneBody=0;strokeColor=inherit;top=0;left=0;bottom=0;right=0;collapsible=0;dropTarget=0;fillColor=none;points=[[0,0.5],[1,0.5]];portConstraint=eastwest;" parent="x_SATtWNZ_-E867AaamW-41" vertex="1">
          <mxGeometry width="120" height="30" as="geometry" />
        </mxCell>
        <mxCell id="x_SATtWNZ_-E867AaamW-43" value="&lt;u&gt;B&lt;/u&gt;" style="shape=partialRectangle;html=1;whiteSpace=wrap;connectable=0;strokeColor=inherit;overflow=hidden;fillColor=none;top=0;left=0;bottom=0;right=0;pointerEvents=1;" parent="x_SATtWNZ_-E867AaamW-42" vertex="1">
          <mxGeometry width="60" height="30" as="geometry">
            <mxRectangle width="60" height="30" as="alternateBounds" />
          </mxGeometry>
        </mxCell>
        <mxCell id="x_SATtWNZ_-E867AaamW-44" value="F" style="shape=partialRectangle;html=1;whiteSpace=wrap;connectable=0;strokeColor=inherit;overflow=hidden;fillColor=none;top=0;left=0;bottom=0;right=0;pointerEvents=1;" parent="x_SATtWNZ_-E867AaamW-42" vertex="1">
          <mxGeometry x="60" width="60" height="30" as="geometry">
            <mxRectangle width="60" height="30" as="alternateBounds" />
          </mxGeometry>
        </mxCell>
        <mxCell id="x_SATtWNZ_-E867AaamW-49" value="" style="shape=table;startSize=0;container=1;collapsible=0;childLayout=tableLayout;" parent="1" vertex="1">
          <mxGeometry x="400" y="100" width="120" height="30" as="geometry" />
        </mxCell>
        <mxCell id="x_SATtWNZ_-E867AaamW-50" value="" style="shape=tableRow;horizontal=0;startSize=0;swimlaneHead=0;swimlaneBody=0;strokeColor=inherit;top=0;left=0;bottom=0;right=0;collapsible=0;dropTarget=0;fillColor=none;points=[[0,0.5],[1,0.5]];portConstraint=eastwest;" parent="x_SATtWNZ_-E867AaamW-49" vertex="1">
          <mxGeometry width="120" height="30" as="geometry" />
        </mxCell>
        <mxCell id="x_SATtWNZ_-E867AaamW-51" value="&lt;u&gt;F&lt;/u&gt;" style="shape=partialRectangle;html=1;whiteSpace=wrap;connectable=0;strokeColor=inherit;overflow=hidden;fillColor=none;top=0;left=0;bottom=0;right=0;pointerEvents=1;" parent="x_SATtWNZ_-E867AaamW-50" vertex="1">
          <mxGeometry width="60" height="30" as="geometry">
            <mxRectangle width="60" height="30" as="alternateBounds" />
          </mxGeometry>
        </mxCell>
        <mxCell id="x_SATtWNZ_-E867AaamW-52" value="&lt;u&gt;H&lt;/u&gt;" style="shape=partialRectangle;html=1;whiteSpace=wrap;connectable=0;strokeColor=inherit;overflow=hidden;fillColor=none;top=0;left=0;bottom=0;right=0;pointerEvents=1;" parent="x_SATtWNZ_-E867AaamW-50" vertex="1">
          <mxGeometry x="60" width="60" height="30" as="geometry">
            <mxRectangle width="60" height="30" as="alternateBounds" />
          </mxGeometry>
        </mxCell>
        <mxCell id="x_SATtWNZ_-E867AaamW-53" value="" style="shape=table;startSize=0;container=1;collapsible=0;childLayout=tableLayout;" parent="1" vertex="1">
          <mxGeometry x="560" y="100" width="120" height="30" as="geometry" />
        </mxCell>
        <mxCell id="x_SATtWNZ_-E867AaamW-54" value="" style="shape=tableRow;horizontal=0;startSize=0;swimlaneHead=0;swimlaneBody=0;strokeColor=inherit;top=0;left=0;bottom=0;right=0;collapsible=0;dropTarget=0;fillColor=none;points=[[0,0.5],[1,0.5]];portConstraint=eastwest;" parent="x_SATtWNZ_-E867AaamW-53" vertex="1">
          <mxGeometry width="120" height="30" as="geometry" />
        </mxCell>
        <mxCell id="x_SATtWNZ_-E867AaamW-55" value="&lt;u&gt;H&lt;/u&gt;" style="shape=partialRectangle;html=1;whiteSpace=wrap;connectable=0;strokeColor=inherit;overflow=hidden;fillColor=none;top=0;left=0;bottom=0;right=0;pointerEvents=1;" parent="x_SATtWNZ_-E867AaamW-54" vertex="1">
          <mxGeometry width="60" height="30" as="geometry">
            <mxRectangle width="60" height="30" as="alternateBounds" />
          </mxGeometry>
        </mxCell>
        <mxCell id="x_SATtWNZ_-E867AaamW-56" value="G" style="shape=partialRectangle;html=1;whiteSpace=wrap;connectable=0;strokeColor=inherit;overflow=hidden;fillColor=none;top=0;left=0;bottom=0;right=0;pointerEvents=1;" parent="x_SATtWNZ_-E867AaamW-54" vertex="1">
          <mxGeometry x="60" width="60" height="30" as="geometry">
            <mxRectangle width="60" height="30" as="alternateBounds" />
          </mxGeometry>
        </mxCell>
        <mxCell id="x_SATtWNZ_-E867AaamW-57" value="" style="endArrow=classic;html=1;rounded=0;exitX=0.5;exitY=-0.093;exitDx=0;exitDy=0;exitPerimeter=0;entryX=0.267;entryY=-0.04;entryDx=0;entryDy=0;entryPerimeter=0;" parent="1" source="x_SATtWNZ_-E867AaamW-4" target="x_SATtWNZ_-E867AaamW-42" edge="1">
          <mxGeometry width="50" height="50" relative="1" as="geometry">
            <mxPoint x="260" y="260" as="sourcePoint" />
            <mxPoint x="310" y="210" as="targetPoint" />
            <Array as="points">
              <mxPoint x="100" y="60" />
              <mxPoint x="272" y="60" />
            </Array>
          </mxGeometry>
        </mxCell>
        <mxCell id="x_SATtWNZ_-E867AaamW-58" value="" style="endArrow=classic;html=1;rounded=0;exitX=0.75;exitY=-0.016;exitDx=0;exitDy=0;exitPerimeter=0;endFill=1;" parent="1" source="x_SATtWNZ_-E867AaamW-42" edge="1">
          <mxGeometry width="50" height="50" relative="1" as="geometry">
            <mxPoint x="330" y="98" as="sourcePoint" />
            <mxPoint x="430" y="100" as="targetPoint" />
            <Array as="points">
              <mxPoint x="330" y="61" />
              <mxPoint x="430" y="60" />
              <mxPoint x="430" y="100" />
            </Array>
          </mxGeometry>
        </mxCell>
        <mxCell id="x_SATtWNZ_-E867AaamW-60" value="" style="endArrow=classic;html=1;rounded=0;exitX=0.75;exitY=-0.016;exitDx=0;exitDy=0;exitPerimeter=0;entryX=0.252;entryY=-0.005;entryDx=0;entryDy=0;entryPerimeter=0;" parent="1" edge="1">
          <mxGeometry width="50" height="50" relative="1" as="geometry">
            <mxPoint x="490" y="100" as="sourcePoint" />
            <mxPoint x="590" y="100" as="targetPoint" />
            <Array as="points">
              <mxPoint x="490" y="61" />
              <mxPoint x="590" y="61" />
            </Array>
          </mxGeometry>
        </mxCell>
        <mxCell id="x_SATtWNZ_-E867AaamW-65" value="" style="endArrow=classic;html=1;rounded=0;exitX=0.831;exitY=0.998;exitDx=0;exitDy=0;exitPerimeter=0;entryX=0.163;entryY=-0.032;entryDx=0;entryDy=0;entryPerimeter=0;" parent="1" target="x_SATtWNZ_-E867AaamW-10" edge="1">
          <mxGeometry width="50" height="50" relative="1" as="geometry">
            <mxPoint x="40" y="130" as="sourcePoint" />
            <mxPoint x="40" y="189" as="targetPoint" />
            <Array as="points">
              <mxPoint x="40" y="160" />
            </Array>
          </mxGeometry>
        </mxCell>
        <mxCell id="x_SATtWNZ_-E867AaamW-68" value="" style="rounded=0;orthogonalLoop=1;jettySize=auto;html=1;entryX=1;entryY=0.5;entryDx=0;entryDy=0;exitX=0;exitY=0.5;exitDx=0;exitDy=0;" parent="1" source="x_SATtWNZ_-E867AaamW-32" target="x_SATtWNZ_-E867AaamW-30" edge="1">
          <mxGeometry relative="1" as="geometry">
            <mxPoint x="300" y="380" as="sourcePoint" />
          </mxGeometry>
        </mxCell>
        <mxCell id="x_SATtWNZ_-E867AaamW-69" value="F" style="rounded=0;whiteSpace=wrap;html=1;" parent="1" vertex="1">
          <mxGeometry x="390" y="390" width="30" height="30" as="geometry" />
        </mxCell>
        <mxCell id="x_SATtWNZ_-E867AaamW-70" value="H" style="rounded=0;whiteSpace=wrap;html=1;" parent="1" vertex="1">
          <mxGeometry x="470" y="390" width="30" height="30" as="geometry" />
        </mxCell>
        <mxCell id="x_SATtWNZ_-E867AaamW-75" style="edgeStyle=orthogonalEdgeStyle;rounded=0;orthogonalLoop=1;jettySize=auto;html=1;exitX=1;exitY=0.5;exitDx=0;exitDy=0;entryX=0;entryY=0.5;entryDx=0;entryDy=0;" parent="1" source="x_SATtWNZ_-E867AaamW-74" target="x_SATtWNZ_-E867AaamW-40" edge="1">
          <mxGeometry relative="1" as="geometry" />
        </mxCell>
        <mxCell id="x_SATtWNZ_-E867AaamW-74" value="H" style="rounded=0;whiteSpace=wrap;html=1;" parent="1" vertex="1">
          <mxGeometry x="390" y="450" width="30" height="30" as="geometry" />
        </mxCell>
        <mxCell id="ij4QeB2IXf_OsyQPDsLy-1" value="3NF:" style="text;html=1;align=center;verticalAlign=middle;resizable=0;points=[];autosize=1;strokeColor=none;fillColor=none;" parent="1" vertex="1">
          <mxGeometry x="10" y="10" width="50" height="30" as="geometry" />
        </mxCell>
      </root>
    </mxGraphModel>
  </diagram>
  <diagram id="wihYRnHJCTx7raYB88Zx" name="BC">
    <mxGraphModel dx="1016" dy="697" grid="1" gridSize="10" guides="1" tooltips="1" connect="1" arrows="1" fold="1" page="1" pageScale="1" pageWidth="850" pageHeight="1100" math="0" shadow="0">
      <root>
        <mxCell id="0" />
        <mxCell id="1" parent="0" />
        <mxCell id="niFnSdY9jxJ9fwIAGESG-1" style="edgeStyle=orthogonalEdgeStyle;rounded=0;orthogonalLoop=1;jettySize=auto;html=1;exitX=1;exitY=0.5;exitDx=0;exitDy=0;entryX=0;entryY=0.5;entryDx=0;entryDy=0;" edge="1" parent="1" source="niFnSdY9jxJ9fwIAGESG-2" target="niFnSdY9jxJ9fwIAGESG-20">
          <mxGeometry relative="1" as="geometry" />
        </mxCell>
        <mxCell id="niFnSdY9jxJ9fwIAGESG-2" value="" style="rounded=0;whiteSpace=wrap;html=1;" vertex="1" parent="1">
          <mxGeometry x="210" y="330" width="50" height="110" as="geometry" />
        </mxCell>
        <mxCell id="niFnSdY9jxJ9fwIAGESG-8" value="" style="shape=table;startSize=0;container=1;collapsible=0;childLayout=tableLayout;" vertex="1" parent="1">
          <mxGeometry x="10" y="240" width="180" height="30" as="geometry" />
        </mxCell>
        <mxCell id="niFnSdY9jxJ9fwIAGESG-9" value="" style="shape=tableRow;horizontal=0;startSize=0;swimlaneHead=0;swimlaneBody=0;strokeColor=inherit;top=0;left=0;bottom=0;right=0;collapsible=0;dropTarget=0;fillColor=none;points=[[0,0.5],[1,0.5]];portConstraint=eastwest;" vertex="1" parent="niFnSdY9jxJ9fwIAGESG-8">
          <mxGeometry width="180" height="30" as="geometry" />
        </mxCell>
        <mxCell id="niFnSdY9jxJ9fwIAGESG-10" value="&lt;u&gt;A&lt;/u&gt;" style="shape=partialRectangle;html=1;whiteSpace=wrap;connectable=0;strokeColor=inherit;overflow=hidden;fillColor=none;top=0;left=0;bottom=0;right=0;pointerEvents=1;" vertex="1" parent="niFnSdY9jxJ9fwIAGESG-9">
          <mxGeometry width="60" height="30" as="geometry">
            <mxRectangle width="60" height="30" as="alternateBounds" />
          </mxGeometry>
        </mxCell>
        <mxCell id="niFnSdY9jxJ9fwIAGESG-11" value="D" style="shape=partialRectangle;html=1;whiteSpace=wrap;connectable=0;strokeColor=inherit;overflow=hidden;fillColor=none;top=0;left=0;bottom=0;right=0;pointerEvents=1;" vertex="1" parent="niFnSdY9jxJ9fwIAGESG-9">
          <mxGeometry x="60" width="60" height="30" as="geometry">
            <mxRectangle width="60" height="30" as="alternateBounds" />
          </mxGeometry>
        </mxCell>
        <mxCell id="niFnSdY9jxJ9fwIAGESG-12" value="E" style="shape=partialRectangle;html=1;whiteSpace=wrap;connectable=0;strokeColor=inherit;overflow=hidden;fillColor=none;top=0;left=0;bottom=0;right=0;pointerEvents=1;" vertex="1" parent="niFnSdY9jxJ9fwIAGESG-9">
          <mxGeometry x="120" width="60" height="30" as="geometry">
            <mxRectangle width="60" height="30" as="alternateBounds" />
          </mxGeometry>
        </mxCell>
        <mxCell id="niFnSdY9jxJ9fwIAGESG-13" style="rounded=0;orthogonalLoop=1;jettySize=auto;html=1;exitX=0;exitY=0.5;exitDx=0;exitDy=0;entryX=1;entryY=0.5;entryDx=0;entryDy=0;endArrow=doubleBlock;endFill=0;" edge="1" parent="1" source="niFnSdY9jxJ9fwIAGESG-17" target="niFnSdY9jxJ9fwIAGESG-14">
          <mxGeometry relative="1" as="geometry" />
        </mxCell>
        <mxCell id="niFnSdY9jxJ9fwIAGESG-14" value="D" style="rounded=0;whiteSpace=wrap;html=1;" vertex="1" parent="1">
          <mxGeometry x="60" y="340" width="30" height="30" as="geometry" />
        </mxCell>
        <mxCell id="niFnSdY9jxJ9fwIAGESG-15" value="E" style="rounded=0;whiteSpace=wrap;html=1;" vertex="1" parent="1">
          <mxGeometry x="60" y="400" width="30" height="30" as="geometry" />
        </mxCell>
        <mxCell id="niFnSdY9jxJ9fwIAGESG-16" style="rounded=0;orthogonalLoop=1;jettySize=auto;html=1;exitX=0;exitY=0.5;exitDx=0;exitDy=0;entryX=1;entryY=0.5;entryDx=0;entryDy=0;endArrow=doubleBlock;endFill=0;" edge="1" parent="1" source="niFnSdY9jxJ9fwIAGESG-17" target="niFnSdY9jxJ9fwIAGESG-15">
          <mxGeometry relative="1" as="geometry" />
        </mxCell>
        <mxCell id="niFnSdY9jxJ9fwIAGESG-17" value="A" style="rounded=0;whiteSpace=wrap;html=1;" vertex="1" parent="1">
          <mxGeometry x="130" y="370" width="30" height="30" as="geometry" />
        </mxCell>
        <mxCell id="niFnSdY9jxJ9fwIAGESG-18" value="A" style="rounded=0;whiteSpace=wrap;html=1;" vertex="1" parent="1">
          <mxGeometry x="220" y="340" width="30" height="30" as="geometry" />
        </mxCell>
        <mxCell id="niFnSdY9jxJ9fwIAGESG-19" value="B" style="rounded=0;whiteSpace=wrap;html=1;" vertex="1" parent="1">
          <mxGeometry x="220" y="400" width="30" height="30" as="geometry" />
        </mxCell>
        <mxCell id="niFnSdY9jxJ9fwIAGESG-20" value="C" style="rounded=0;whiteSpace=wrap;html=1;" vertex="1" parent="1">
          <mxGeometry x="300" y="370" width="30" height="30" as="geometry" />
        </mxCell>
        <mxCell id="niFnSdY9jxJ9fwIAGESG-21" style="edgeStyle=orthogonalEdgeStyle;rounded=0;orthogonalLoop=1;jettySize=auto;html=1;exitX=1;exitY=0.5;exitDx=0;exitDy=0;entryX=0;entryY=0.5;entryDx=0;entryDy=0;" edge="1" parent="1" source="niFnSdY9jxJ9fwIAGESG-22" target="niFnSdY9jxJ9fwIAGESG-24">
          <mxGeometry relative="1" as="geometry" />
        </mxCell>
        <mxCell id="niFnSdY9jxJ9fwIAGESG-22" value="B" style="rounded=0;whiteSpace=wrap;html=1;" vertex="1" parent="1">
          <mxGeometry x="390" y="330" width="30" height="30" as="geometry" />
        </mxCell>
        <mxCell id="niFnSdY9jxJ9fwIAGESG-23" style="rounded=0;orthogonalLoop=1;jettySize=auto;html=1;exitX=1;exitY=0.5;exitDx=0;exitDy=0;" edge="1" parent="1" source="niFnSdY9jxJ9fwIAGESG-43">
          <mxGeometry relative="1" as="geometry">
            <mxPoint x="440" y="410" as="sourcePoint" />
            <mxPoint x="470" y="405" as="targetPoint" />
          </mxGeometry>
        </mxCell>
        <mxCell id="niFnSdY9jxJ9fwIAGESG-24" value="F" style="rounded=0;whiteSpace=wrap;html=1;" vertex="1" parent="1">
          <mxGeometry x="470" y="330" width="30" height="30" as="geometry" />
        </mxCell>
        <mxCell id="niFnSdY9jxJ9fwIAGESG-25" value="G" style="rounded=0;whiteSpace=wrap;html=1;" vertex="1" parent="1">
          <mxGeometry x="470" y="450" width="30" height="30" as="geometry" />
        </mxCell>
        <mxCell id="niFnSdY9jxJ9fwIAGESG-26" value="" style="shape=table;startSize=0;container=1;collapsible=0;childLayout=tableLayout;" vertex="1" parent="1">
          <mxGeometry x="340" y="100" width="120" height="30" as="geometry" />
        </mxCell>
        <mxCell id="niFnSdY9jxJ9fwIAGESG-27" value="" style="shape=tableRow;horizontal=0;startSize=0;swimlaneHead=0;swimlaneBody=0;strokeColor=inherit;top=0;left=0;bottom=0;right=0;collapsible=0;dropTarget=0;fillColor=none;points=[[0,0.5],[1,0.5]];portConstraint=eastwest;" vertex="1" parent="niFnSdY9jxJ9fwIAGESG-26">
          <mxGeometry width="120" height="30" as="geometry" />
        </mxCell>
        <mxCell id="niFnSdY9jxJ9fwIAGESG-28" value="&lt;u&gt;B&lt;/u&gt;" style="shape=partialRectangle;html=1;whiteSpace=wrap;connectable=0;strokeColor=inherit;overflow=hidden;fillColor=none;top=0;left=0;bottom=0;right=0;pointerEvents=1;" vertex="1" parent="niFnSdY9jxJ9fwIAGESG-27">
          <mxGeometry width="60" height="30" as="geometry">
            <mxRectangle width="60" height="30" as="alternateBounds" />
          </mxGeometry>
        </mxCell>
        <mxCell id="niFnSdY9jxJ9fwIAGESG-29" value="F" style="shape=partialRectangle;html=1;whiteSpace=wrap;connectable=0;strokeColor=inherit;overflow=hidden;fillColor=none;top=0;left=0;bottom=0;right=0;pointerEvents=1;" vertex="1" parent="niFnSdY9jxJ9fwIAGESG-27">
          <mxGeometry x="60" width="60" height="30" as="geometry">
            <mxRectangle width="60" height="30" as="alternateBounds" />
          </mxGeometry>
        </mxCell>
        <mxCell id="niFnSdY9jxJ9fwIAGESG-30" value="" style="shape=table;startSize=0;container=1;collapsible=0;childLayout=tableLayout;" vertex="1" parent="1">
          <mxGeometry x="500" y="100" width="120" height="30" as="geometry" />
        </mxCell>
        <mxCell id="niFnSdY9jxJ9fwIAGESG-31" value="" style="shape=tableRow;horizontal=0;startSize=0;swimlaneHead=0;swimlaneBody=0;strokeColor=inherit;top=0;left=0;bottom=0;right=0;collapsible=0;dropTarget=0;fillColor=none;points=[[0,0.5],[1,0.5]];portConstraint=eastwest;" vertex="1" parent="niFnSdY9jxJ9fwIAGESG-30">
          <mxGeometry width="120" height="30" as="geometry" />
        </mxCell>
        <mxCell id="niFnSdY9jxJ9fwIAGESG-32" value="&lt;u&gt;F&lt;/u&gt;" style="shape=partialRectangle;html=1;whiteSpace=wrap;connectable=0;strokeColor=inherit;overflow=hidden;fillColor=none;top=0;left=0;bottom=0;right=0;pointerEvents=1;" vertex="1" parent="niFnSdY9jxJ9fwIAGESG-31">
          <mxGeometry width="60" height="30" as="geometry">
            <mxRectangle width="60" height="30" as="alternateBounds" />
          </mxGeometry>
        </mxCell>
        <mxCell id="niFnSdY9jxJ9fwIAGESG-33" value="&lt;u&gt;H&lt;/u&gt;" style="shape=partialRectangle;html=1;whiteSpace=wrap;connectable=0;strokeColor=inherit;overflow=hidden;fillColor=none;top=0;left=0;bottom=0;right=0;pointerEvents=1;" vertex="1" parent="niFnSdY9jxJ9fwIAGESG-31">
          <mxGeometry x="60" width="60" height="30" as="geometry">
            <mxRectangle width="60" height="30" as="alternateBounds" />
          </mxGeometry>
        </mxCell>
        <mxCell id="niFnSdY9jxJ9fwIAGESG-34" value="" style="shape=table;startSize=0;container=1;collapsible=0;childLayout=tableLayout;" vertex="1" parent="1">
          <mxGeometry x="660" y="100" width="120" height="30" as="geometry" />
        </mxCell>
        <mxCell id="niFnSdY9jxJ9fwIAGESG-35" value="" style="shape=tableRow;horizontal=0;startSize=0;swimlaneHead=0;swimlaneBody=0;strokeColor=inherit;top=0;left=0;bottom=0;right=0;collapsible=0;dropTarget=0;fillColor=none;points=[[0,0.5],[1,0.5]];portConstraint=eastwest;" vertex="1" parent="niFnSdY9jxJ9fwIAGESG-34">
          <mxGeometry width="120" height="30" as="geometry" />
        </mxCell>
        <mxCell id="niFnSdY9jxJ9fwIAGESG-36" value="&lt;u&gt;H&lt;/u&gt;" style="shape=partialRectangle;html=1;whiteSpace=wrap;connectable=0;strokeColor=inherit;overflow=hidden;fillColor=none;top=0;left=0;bottom=0;right=0;pointerEvents=1;" vertex="1" parent="niFnSdY9jxJ9fwIAGESG-35">
          <mxGeometry width="60" height="30" as="geometry">
            <mxRectangle width="60" height="30" as="alternateBounds" />
          </mxGeometry>
        </mxCell>
        <mxCell id="niFnSdY9jxJ9fwIAGESG-37" value="G" style="shape=partialRectangle;html=1;whiteSpace=wrap;connectable=0;strokeColor=inherit;overflow=hidden;fillColor=none;top=0;left=0;bottom=0;right=0;pointerEvents=1;" vertex="1" parent="niFnSdY9jxJ9fwIAGESG-35">
          <mxGeometry x="60" width="60" height="30" as="geometry">
            <mxRectangle width="60" height="30" as="alternateBounds" />
          </mxGeometry>
        </mxCell>
        <mxCell id="niFnSdY9jxJ9fwIAGESG-38" value="" style="endArrow=classic;html=1;rounded=0;entryX=0.252;entryY=-0.014;entryDx=0;entryDy=0;entryPerimeter=0;exitX=0.742;exitY=-0.067;exitDx=0;exitDy=0;exitPerimeter=0;" edge="1" parent="1" source="niFnSdY9jxJ9fwIAGESG-53" target="niFnSdY9jxJ9fwIAGESG-27">
          <mxGeometry width="50" height="50" relative="1" as="geometry">
            <mxPoint x="100" y="60" as="sourcePoint" />
            <mxPoint x="310" y="210" as="targetPoint" />
            <Array as="points">
              <mxPoint x="260" y="99" />
              <mxPoint x="260" y="60" />
              <mxPoint x="370" y="60" />
            </Array>
          </mxGeometry>
        </mxCell>
        <mxCell id="niFnSdY9jxJ9fwIAGESG-39" value="" style="endArrow=classic;html=1;rounded=0;exitX=0.75;exitY=-0.016;exitDx=0;exitDy=0;exitPerimeter=0;endFill=1;" edge="1" parent="1" source="niFnSdY9jxJ9fwIAGESG-27">
          <mxGeometry width="50" height="50" relative="1" as="geometry">
            <mxPoint x="430" y="98" as="sourcePoint" />
            <mxPoint x="530" y="100" as="targetPoint" />
            <Array as="points">
              <mxPoint x="430" y="61" />
              <mxPoint x="530" y="60" />
              <mxPoint x="530" y="100" />
            </Array>
          </mxGeometry>
        </mxCell>
        <mxCell id="niFnSdY9jxJ9fwIAGESG-40" value="" style="endArrow=classic;html=1;rounded=0;exitX=0.75;exitY=-0.016;exitDx=0;exitDy=0;exitPerimeter=0;entryX=0.252;entryY=-0.005;entryDx=0;entryDy=0;entryPerimeter=0;" edge="1" parent="1">
          <mxGeometry width="50" height="50" relative="1" as="geometry">
            <mxPoint x="590" y="100" as="sourcePoint" />
            <mxPoint x="690" y="100" as="targetPoint" />
            <Array as="points">
              <mxPoint x="590" y="61" />
              <mxPoint x="690" y="61" />
            </Array>
          </mxGeometry>
        </mxCell>
        <mxCell id="niFnSdY9jxJ9fwIAGESG-41" value="" style="endArrow=classic;html=1;rounded=0;entryX=0.163;entryY=-0.032;entryDx=0;entryDy=0;entryPerimeter=0;" edge="1" parent="1" target="niFnSdY9jxJ9fwIAGESG-9">
          <mxGeometry width="50" height="50" relative="1" as="geometry">
            <mxPoint x="39" y="180" as="sourcePoint" />
            <mxPoint x="40" y="189" as="targetPoint" />
            <Array as="points">
              <mxPoint x="40" y="130" />
            </Array>
          </mxGeometry>
        </mxCell>
        <mxCell id="niFnSdY9jxJ9fwIAGESG-42" value="" style="rounded=0;orthogonalLoop=1;jettySize=auto;html=1;entryX=1;entryY=0.5;entryDx=0;entryDy=0;exitX=0;exitY=0.5;exitDx=0;exitDy=0;" edge="1" parent="1" source="niFnSdY9jxJ9fwIAGESG-20" target="niFnSdY9jxJ9fwIAGESG-19">
          <mxGeometry relative="1" as="geometry">
            <mxPoint x="300" y="380" as="sourcePoint" />
          </mxGeometry>
        </mxCell>
        <mxCell id="niFnSdY9jxJ9fwIAGESG-43" value="F" style="rounded=0;whiteSpace=wrap;html=1;" vertex="1" parent="1">
          <mxGeometry x="390" y="390" width="30" height="30" as="geometry" />
        </mxCell>
        <mxCell id="niFnSdY9jxJ9fwIAGESG-44" value="H" style="rounded=0;whiteSpace=wrap;html=1;" vertex="1" parent="1">
          <mxGeometry x="470" y="390" width="30" height="30" as="geometry" />
        </mxCell>
        <mxCell id="niFnSdY9jxJ9fwIAGESG-45" style="edgeStyle=orthogonalEdgeStyle;rounded=0;orthogonalLoop=1;jettySize=auto;html=1;exitX=1;exitY=0.5;exitDx=0;exitDy=0;entryX=0;entryY=0.5;entryDx=0;entryDy=0;" edge="1" parent="1" source="niFnSdY9jxJ9fwIAGESG-46" target="niFnSdY9jxJ9fwIAGESG-25">
          <mxGeometry relative="1" as="geometry" />
        </mxCell>
        <mxCell id="niFnSdY9jxJ9fwIAGESG-46" value="H" style="rounded=0;whiteSpace=wrap;html=1;" vertex="1" parent="1">
          <mxGeometry x="390" y="450" width="30" height="30" as="geometry" />
        </mxCell>
        <mxCell id="niFnSdY9jxJ9fwIAGESG-47" value="BC" style="text;html=1;align=center;verticalAlign=middle;resizable=0;points=[];autosize=1;strokeColor=none;fillColor=none;" vertex="1" parent="1">
          <mxGeometry x="15" y="10" width="40" height="30" as="geometry" />
        </mxCell>
        <mxCell id="niFnSdY9jxJ9fwIAGESG-48" value="" style="shape=table;startSize=0;container=1;collapsible=0;childLayout=tableLayout;" vertex="1" parent="1">
          <mxGeometry x="15" y="100" width="120" height="30" as="geometry" />
        </mxCell>
        <mxCell id="niFnSdY9jxJ9fwIAGESG-49" value="" style="shape=tableRow;horizontal=0;startSize=0;swimlaneHead=0;swimlaneBody=0;strokeColor=inherit;top=0;left=0;bottom=0;right=0;collapsible=0;dropTarget=0;fillColor=none;points=[[0,0.5],[1,0.5]];portConstraint=eastwest;" vertex="1" parent="niFnSdY9jxJ9fwIAGESG-48">
          <mxGeometry width="120" height="30" as="geometry" />
        </mxCell>
        <mxCell id="niFnSdY9jxJ9fwIAGESG-50" value="&lt;u&gt;A&lt;/u&gt;" style="shape=partialRectangle;html=1;whiteSpace=wrap;connectable=0;strokeColor=inherit;overflow=hidden;fillColor=none;top=0;left=0;bottom=0;right=0;pointerEvents=1;" vertex="1" parent="niFnSdY9jxJ9fwIAGESG-49">
          <mxGeometry width="60" height="30" as="geometry">
            <mxRectangle width="60" height="30" as="alternateBounds" />
          </mxGeometry>
        </mxCell>
        <mxCell id="niFnSdY9jxJ9fwIAGESG-51" value="&lt;u&gt;C&lt;/u&gt;" style="shape=partialRectangle;html=1;whiteSpace=wrap;connectable=0;strokeColor=inherit;overflow=hidden;fillColor=none;top=0;left=0;bottom=0;right=0;pointerEvents=1;" vertex="1" parent="niFnSdY9jxJ9fwIAGESG-49">
          <mxGeometry x="60" width="60" height="30" as="geometry">
            <mxRectangle width="60" height="30" as="alternateBounds" />
          </mxGeometry>
        </mxCell>
        <mxCell id="niFnSdY9jxJ9fwIAGESG-52" value="" style="shape=table;startSize=0;container=1;collapsible=0;childLayout=tableLayout;" vertex="1" parent="1">
          <mxGeometry x="170" y="100" width="120" height="30" as="geometry" />
        </mxCell>
        <mxCell id="niFnSdY9jxJ9fwIAGESG-53" value="" style="shape=tableRow;horizontal=0;startSize=0;swimlaneHead=0;swimlaneBody=0;strokeColor=inherit;top=0;left=0;bottom=0;right=0;collapsible=0;dropTarget=0;fillColor=none;points=[[0,0.5],[1,0.5]];portConstraint=eastwest;" vertex="1" parent="niFnSdY9jxJ9fwIAGESG-52">
          <mxGeometry width="120" height="30" as="geometry" />
        </mxCell>
        <mxCell id="niFnSdY9jxJ9fwIAGESG-54" value="&lt;u&gt;C&lt;/u&gt;" style="shape=partialRectangle;html=1;whiteSpace=wrap;connectable=0;strokeColor=inherit;overflow=hidden;fillColor=none;top=0;left=0;bottom=0;right=0;pointerEvents=1;" vertex="1" parent="niFnSdY9jxJ9fwIAGESG-53">
          <mxGeometry width="60" height="30" as="geometry">
            <mxRectangle width="60" height="30" as="alternateBounds" />
          </mxGeometry>
        </mxCell>
        <mxCell id="niFnSdY9jxJ9fwIAGESG-55" value="&lt;u&gt;B&lt;/u&gt;" style="shape=partialRectangle;html=1;whiteSpace=wrap;connectable=0;strokeColor=inherit;overflow=hidden;fillColor=none;top=0;left=0;bottom=0;right=0;pointerEvents=1;" vertex="1" parent="niFnSdY9jxJ9fwIAGESG-53">
          <mxGeometry x="60" width="60" height="30" as="geometry">
            <mxRectangle width="60" height="30" as="alternateBounds" />
          </mxGeometry>
        </mxCell>
        <mxCell id="niFnSdY9jxJ9fwIAGESG-56" value="" style="endArrow=classic;html=1;rounded=0;entryX=0.252;entryY=-0.014;entryDx=0;entryDy=0;entryPerimeter=0;exitX=0.742;exitY=-0.067;exitDx=0;exitDy=0;exitPerimeter=0;" edge="1" parent="1">
          <mxGeometry width="50" height="50" relative="1" as="geometry">
            <mxPoint x="90" y="98" as="sourcePoint" />
            <mxPoint x="201" y="100" as="targetPoint" />
            <Array as="points">
              <mxPoint x="91" y="99" />
              <mxPoint x="91" y="60" />
              <mxPoint x="201" y="60" />
            </Array>
          </mxGeometry>
        </mxCell>
      </root>
    </mxGraphModel>
  </diagram>
  <diagram id="EGPyaxob0B50a55YA7NP" name="Page-4">
    <mxGraphModel dx="896" dy="615" grid="1" gridSize="10" guides="1" tooltips="1" connect="1" arrows="1" fold="1" page="1" pageScale="1" pageWidth="850" pageHeight="1100" math="0" shadow="0">
      <root>
        <mxCell id="0" />
        <mxCell id="1" parent="0" />
        <mxCell id="Nil3mYl1eCRsG-_xPEcp-1" style="edgeStyle=orthogonalEdgeStyle;rounded=0;orthogonalLoop=1;jettySize=auto;html=1;exitX=1;exitY=0.5;exitDx=0;exitDy=0;entryX=0;entryY=0.5;entryDx=0;entryDy=0;" edge="1" parent="1" source="Nil3mYl1eCRsG-_xPEcp-2" target="Nil3mYl1eCRsG-_xPEcp-15">
          <mxGeometry relative="1" as="geometry" />
        </mxCell>
        <mxCell id="Nil3mYl1eCRsG-_xPEcp-2" value="" style="rounded=0;whiteSpace=wrap;html=1;" vertex="1" parent="1">
          <mxGeometry x="210" y="330" width="50" height="110" as="geometry" />
        </mxCell>
        <mxCell id="Nil3mYl1eCRsG-_xPEcp-8" style="rounded=0;orthogonalLoop=1;jettySize=auto;html=1;exitX=0;exitY=0.5;exitDx=0;exitDy=0;entryX=1;entryY=0.5;entryDx=0;entryDy=0;endArrow=doubleBlock;endFill=0;" edge="1" parent="1" source="Nil3mYl1eCRsG-_xPEcp-12" target="Nil3mYl1eCRsG-_xPEcp-9">
          <mxGeometry relative="1" as="geometry" />
        </mxCell>
        <mxCell id="Nil3mYl1eCRsG-_xPEcp-9" value="D" style="rounded=0;whiteSpace=wrap;html=1;" vertex="1" parent="1">
          <mxGeometry x="60" y="340" width="30" height="30" as="geometry" />
        </mxCell>
        <mxCell id="Nil3mYl1eCRsG-_xPEcp-10" value="E" style="rounded=0;whiteSpace=wrap;html=1;" vertex="1" parent="1">
          <mxGeometry x="60" y="400" width="30" height="30" as="geometry" />
        </mxCell>
        <mxCell id="Nil3mYl1eCRsG-_xPEcp-11" style="rounded=0;orthogonalLoop=1;jettySize=auto;html=1;entryX=1;entryY=0.5;entryDx=0;entryDy=0;endArrow=doubleBlock;endFill=0;" edge="1" parent="1" target="Nil3mYl1eCRsG-_xPEcp-10">
          <mxGeometry relative="1" as="geometry">
            <mxPoint x="130" y="415" as="sourcePoint" />
          </mxGeometry>
        </mxCell>
        <mxCell id="Nil3mYl1eCRsG-_xPEcp-12" value="A" style="rounded=0;whiteSpace=wrap;html=1;" vertex="1" parent="1">
          <mxGeometry x="130" y="340" width="30" height="30" as="geometry" />
        </mxCell>
        <mxCell id="Nil3mYl1eCRsG-_xPEcp-13" value="A" style="rounded=0;whiteSpace=wrap;html=1;" vertex="1" parent="1">
          <mxGeometry x="220" y="340" width="30" height="30" as="geometry" />
        </mxCell>
        <mxCell id="Nil3mYl1eCRsG-_xPEcp-14" value="B" style="rounded=0;whiteSpace=wrap;html=1;" vertex="1" parent="1">
          <mxGeometry x="220" y="400" width="30" height="30" as="geometry" />
        </mxCell>
        <mxCell id="Nil3mYl1eCRsG-_xPEcp-15" value="C" style="rounded=0;whiteSpace=wrap;html=1;" vertex="1" parent="1">
          <mxGeometry x="300" y="370" width="30" height="30" as="geometry" />
        </mxCell>
        <mxCell id="Nil3mYl1eCRsG-_xPEcp-16" style="edgeStyle=orthogonalEdgeStyle;rounded=0;orthogonalLoop=1;jettySize=auto;html=1;exitX=1;exitY=0.5;exitDx=0;exitDy=0;entryX=0;entryY=0.5;entryDx=0;entryDy=0;" edge="1" parent="1" source="Nil3mYl1eCRsG-_xPEcp-17" target="Nil3mYl1eCRsG-_xPEcp-19">
          <mxGeometry relative="1" as="geometry" />
        </mxCell>
        <mxCell id="Nil3mYl1eCRsG-_xPEcp-17" value="B" style="rounded=0;whiteSpace=wrap;html=1;" vertex="1" parent="1">
          <mxGeometry x="390" y="330" width="30" height="30" as="geometry" />
        </mxCell>
        <mxCell id="Nil3mYl1eCRsG-_xPEcp-18" style="rounded=0;orthogonalLoop=1;jettySize=auto;html=1;exitX=1;exitY=0.5;exitDx=0;exitDy=0;" edge="1" parent="1" source="Nil3mYl1eCRsG-_xPEcp-38">
          <mxGeometry relative="1" as="geometry">
            <mxPoint x="440" y="410" as="sourcePoint" />
            <mxPoint x="470" y="405" as="targetPoint" />
          </mxGeometry>
        </mxCell>
        <mxCell id="Nil3mYl1eCRsG-_xPEcp-19" value="F" style="rounded=0;whiteSpace=wrap;html=1;" vertex="1" parent="1">
          <mxGeometry x="470" y="330" width="30" height="30" as="geometry" />
        </mxCell>
        <mxCell id="Nil3mYl1eCRsG-_xPEcp-20" value="G" style="rounded=0;whiteSpace=wrap;html=1;" vertex="1" parent="1">
          <mxGeometry x="470" y="450" width="30" height="30" as="geometry" />
        </mxCell>
        <mxCell id="Nil3mYl1eCRsG-_xPEcp-21" value="" style="shape=table;startSize=0;container=1;collapsible=0;childLayout=tableLayout;" vertex="1" parent="1">
          <mxGeometry x="340" y="100" width="120" height="30" as="geometry" />
        </mxCell>
        <mxCell id="Nil3mYl1eCRsG-_xPEcp-22" value="" style="shape=tableRow;horizontal=0;startSize=0;swimlaneHead=0;swimlaneBody=0;strokeColor=inherit;top=0;left=0;bottom=0;right=0;collapsible=0;dropTarget=0;fillColor=none;points=[[0,0.5],[1,0.5]];portConstraint=eastwest;" vertex="1" parent="Nil3mYl1eCRsG-_xPEcp-21">
          <mxGeometry width="120" height="30" as="geometry" />
        </mxCell>
        <mxCell id="Nil3mYl1eCRsG-_xPEcp-23" value="&lt;u&gt;B&lt;/u&gt;" style="shape=partialRectangle;html=1;whiteSpace=wrap;connectable=0;strokeColor=inherit;overflow=hidden;fillColor=none;top=0;left=0;bottom=0;right=0;pointerEvents=1;" vertex="1" parent="Nil3mYl1eCRsG-_xPEcp-22">
          <mxGeometry width="60" height="30" as="geometry">
            <mxRectangle width="60" height="30" as="alternateBounds" />
          </mxGeometry>
        </mxCell>
        <mxCell id="Nil3mYl1eCRsG-_xPEcp-24" value="F" style="shape=partialRectangle;html=1;whiteSpace=wrap;connectable=0;strokeColor=inherit;overflow=hidden;fillColor=none;top=0;left=0;bottom=0;right=0;pointerEvents=1;" vertex="1" parent="Nil3mYl1eCRsG-_xPEcp-22">
          <mxGeometry x="60" width="60" height="30" as="geometry">
            <mxRectangle width="60" height="30" as="alternateBounds" />
          </mxGeometry>
        </mxCell>
        <mxCell id="Nil3mYl1eCRsG-_xPEcp-25" value="" style="shape=table;startSize=0;container=1;collapsible=0;childLayout=tableLayout;" vertex="1" parent="1">
          <mxGeometry x="500" y="100" width="120" height="30" as="geometry" />
        </mxCell>
        <mxCell id="Nil3mYl1eCRsG-_xPEcp-26" value="" style="shape=tableRow;horizontal=0;startSize=0;swimlaneHead=0;swimlaneBody=0;strokeColor=inherit;top=0;left=0;bottom=0;right=0;collapsible=0;dropTarget=0;fillColor=none;points=[[0,0.5],[1,0.5]];portConstraint=eastwest;" vertex="1" parent="Nil3mYl1eCRsG-_xPEcp-25">
          <mxGeometry width="120" height="30" as="geometry" />
        </mxCell>
        <mxCell id="Nil3mYl1eCRsG-_xPEcp-27" value="&lt;u&gt;F&lt;/u&gt;" style="shape=partialRectangle;html=1;whiteSpace=wrap;connectable=0;strokeColor=inherit;overflow=hidden;fillColor=none;top=0;left=0;bottom=0;right=0;pointerEvents=1;" vertex="1" parent="Nil3mYl1eCRsG-_xPEcp-26">
          <mxGeometry width="60" height="30" as="geometry">
            <mxRectangle width="60" height="30" as="alternateBounds" />
          </mxGeometry>
        </mxCell>
        <mxCell id="Nil3mYl1eCRsG-_xPEcp-28" value="&lt;u&gt;H&lt;/u&gt;" style="shape=partialRectangle;html=1;whiteSpace=wrap;connectable=0;strokeColor=inherit;overflow=hidden;fillColor=none;top=0;left=0;bottom=0;right=0;pointerEvents=1;" vertex="1" parent="Nil3mYl1eCRsG-_xPEcp-26">
          <mxGeometry x="60" width="60" height="30" as="geometry">
            <mxRectangle width="60" height="30" as="alternateBounds" />
          </mxGeometry>
        </mxCell>
        <mxCell id="Nil3mYl1eCRsG-_xPEcp-29" value="" style="shape=table;startSize=0;container=1;collapsible=0;childLayout=tableLayout;" vertex="1" parent="1">
          <mxGeometry x="660" y="100" width="120" height="30" as="geometry" />
        </mxCell>
        <mxCell id="Nil3mYl1eCRsG-_xPEcp-30" value="" style="shape=tableRow;horizontal=0;startSize=0;swimlaneHead=0;swimlaneBody=0;strokeColor=inherit;top=0;left=0;bottom=0;right=0;collapsible=0;dropTarget=0;fillColor=none;points=[[0,0.5],[1,0.5]];portConstraint=eastwest;" vertex="1" parent="Nil3mYl1eCRsG-_xPEcp-29">
          <mxGeometry width="120" height="30" as="geometry" />
        </mxCell>
        <mxCell id="Nil3mYl1eCRsG-_xPEcp-31" value="&lt;u&gt;H&lt;/u&gt;" style="shape=partialRectangle;html=1;whiteSpace=wrap;connectable=0;strokeColor=inherit;overflow=hidden;fillColor=none;top=0;left=0;bottom=0;right=0;pointerEvents=1;" vertex="1" parent="Nil3mYl1eCRsG-_xPEcp-30">
          <mxGeometry width="60" height="30" as="geometry">
            <mxRectangle width="60" height="30" as="alternateBounds" />
          </mxGeometry>
        </mxCell>
        <mxCell id="Nil3mYl1eCRsG-_xPEcp-32" value="G" style="shape=partialRectangle;html=1;whiteSpace=wrap;connectable=0;strokeColor=inherit;overflow=hidden;fillColor=none;top=0;left=0;bottom=0;right=0;pointerEvents=1;" vertex="1" parent="Nil3mYl1eCRsG-_xPEcp-30">
          <mxGeometry x="60" width="60" height="30" as="geometry">
            <mxRectangle width="60" height="30" as="alternateBounds" />
          </mxGeometry>
        </mxCell>
        <mxCell id="Nil3mYl1eCRsG-_xPEcp-33" value="" style="endArrow=classic;html=1;rounded=0;entryX=0.252;entryY=-0.014;entryDx=0;entryDy=0;entryPerimeter=0;exitX=0.742;exitY=-0.067;exitDx=0;exitDy=0;exitPerimeter=0;" edge="1" parent="1" source="Nil3mYl1eCRsG-_xPEcp-48" target="Nil3mYl1eCRsG-_xPEcp-22">
          <mxGeometry width="50" height="50" relative="1" as="geometry">
            <mxPoint x="100" y="60" as="sourcePoint" />
            <mxPoint x="310" y="210" as="targetPoint" />
            <Array as="points">
              <mxPoint x="260" y="99" />
              <mxPoint x="260" y="60" />
              <mxPoint x="370" y="60" />
            </Array>
          </mxGeometry>
        </mxCell>
        <mxCell id="Nil3mYl1eCRsG-_xPEcp-34" value="" style="endArrow=classic;html=1;rounded=0;exitX=0.75;exitY=-0.016;exitDx=0;exitDy=0;exitPerimeter=0;endFill=1;" edge="1" parent="1" source="Nil3mYl1eCRsG-_xPEcp-22">
          <mxGeometry width="50" height="50" relative="1" as="geometry">
            <mxPoint x="430" y="98" as="sourcePoint" />
            <mxPoint x="530" y="100" as="targetPoint" />
            <Array as="points">
              <mxPoint x="430" y="61" />
              <mxPoint x="530" y="60" />
              <mxPoint x="530" y="100" />
            </Array>
          </mxGeometry>
        </mxCell>
        <mxCell id="Nil3mYl1eCRsG-_xPEcp-35" value="" style="endArrow=classic;html=1;rounded=0;exitX=0.75;exitY=-0.016;exitDx=0;exitDy=0;exitPerimeter=0;entryX=0.252;entryY=-0.005;entryDx=0;entryDy=0;entryPerimeter=0;" edge="1" parent="1">
          <mxGeometry width="50" height="50" relative="1" as="geometry">
            <mxPoint x="590" y="100" as="sourcePoint" />
            <mxPoint x="690" y="100" as="targetPoint" />
            <Array as="points">
              <mxPoint x="590" y="61" />
              <mxPoint x="690" y="61" />
            </Array>
          </mxGeometry>
        </mxCell>
        <mxCell id="Nil3mYl1eCRsG-_xPEcp-36" value="" style="endArrow=classic;html=1;rounded=0;entryX=0.163;entryY=-0.032;entryDx=0;entryDy=0;entryPerimeter=0;exitX=0.258;exitY=-0.005;exitDx=0;exitDy=0;exitPerimeter=0;startArrow=classic;startFill=1;" edge="1" parent="1" source="Nil3mYl1eCRsG-_xPEcp-58">
          <mxGeometry width="50" height="50" relative="1" as="geometry">
            <mxPoint x="39" y="180" as="sourcePoint" />
            <mxPoint x="39.33999999999992" y="239.03999999999996" as="targetPoint" />
            <Array as="points">
              <mxPoint x="40" y="130" />
            </Array>
          </mxGeometry>
        </mxCell>
        <mxCell id="Nil3mYl1eCRsG-_xPEcp-37" value="" style="rounded=0;orthogonalLoop=1;jettySize=auto;html=1;entryX=1;entryY=0.5;entryDx=0;entryDy=0;exitX=0;exitY=0.5;exitDx=0;exitDy=0;" edge="1" parent="1" source="Nil3mYl1eCRsG-_xPEcp-15" target="Nil3mYl1eCRsG-_xPEcp-14">
          <mxGeometry relative="1" as="geometry">
            <mxPoint x="300" y="380" as="sourcePoint" />
          </mxGeometry>
        </mxCell>
        <mxCell id="Nil3mYl1eCRsG-_xPEcp-38" value="F" style="rounded=0;whiteSpace=wrap;html=1;" vertex="1" parent="1">
          <mxGeometry x="390" y="390" width="30" height="30" as="geometry" />
        </mxCell>
        <mxCell id="Nil3mYl1eCRsG-_xPEcp-39" value="H" style="rounded=0;whiteSpace=wrap;html=1;" vertex="1" parent="1">
          <mxGeometry x="470" y="390" width="30" height="30" as="geometry" />
        </mxCell>
        <mxCell id="Nil3mYl1eCRsG-_xPEcp-40" style="edgeStyle=orthogonalEdgeStyle;rounded=0;orthogonalLoop=1;jettySize=auto;html=1;exitX=1;exitY=0.5;exitDx=0;exitDy=0;entryX=0;entryY=0.5;entryDx=0;entryDy=0;" edge="1" parent="1" source="Nil3mYl1eCRsG-_xPEcp-41" target="Nil3mYl1eCRsG-_xPEcp-20">
          <mxGeometry relative="1" as="geometry" />
        </mxCell>
        <mxCell id="Nil3mYl1eCRsG-_xPEcp-41" value="H" style="rounded=0;whiteSpace=wrap;html=1;" vertex="1" parent="1">
          <mxGeometry x="390" y="450" width="30" height="30" as="geometry" />
        </mxCell>
        <mxCell id="Nil3mYl1eCRsG-_xPEcp-42" value="4NF" style="text;html=1;align=center;verticalAlign=middle;resizable=0;points=[];autosize=1;strokeColor=none;fillColor=none;" vertex="1" parent="1">
          <mxGeometry x="10" y="10" width="50" height="30" as="geometry" />
        </mxCell>
        <mxCell id="Nil3mYl1eCRsG-_xPEcp-43" value="" style="shape=table;startSize=0;container=1;collapsible=0;childLayout=tableLayout;" vertex="1" parent="1">
          <mxGeometry x="15" y="100" width="120" height="30" as="geometry" />
        </mxCell>
        <mxCell id="Nil3mYl1eCRsG-_xPEcp-44" value="" style="shape=tableRow;horizontal=0;startSize=0;swimlaneHead=0;swimlaneBody=0;strokeColor=inherit;top=0;left=0;bottom=0;right=0;collapsible=0;dropTarget=0;fillColor=none;points=[[0,0.5],[1,0.5]];portConstraint=eastwest;" vertex="1" parent="Nil3mYl1eCRsG-_xPEcp-43">
          <mxGeometry width="120" height="30" as="geometry" />
        </mxCell>
        <mxCell id="Nil3mYl1eCRsG-_xPEcp-45" value="&lt;u&gt;A&lt;/u&gt;" style="shape=partialRectangle;html=1;whiteSpace=wrap;connectable=0;strokeColor=inherit;overflow=hidden;fillColor=none;top=0;left=0;bottom=0;right=0;pointerEvents=1;" vertex="1" parent="Nil3mYl1eCRsG-_xPEcp-44">
          <mxGeometry width="60" height="30" as="geometry">
            <mxRectangle width="60" height="30" as="alternateBounds" />
          </mxGeometry>
        </mxCell>
        <mxCell id="Nil3mYl1eCRsG-_xPEcp-46" value="&lt;u&gt;C&lt;/u&gt;" style="shape=partialRectangle;html=1;whiteSpace=wrap;connectable=0;strokeColor=inherit;overflow=hidden;fillColor=none;top=0;left=0;bottom=0;right=0;pointerEvents=1;" vertex="1" parent="Nil3mYl1eCRsG-_xPEcp-44">
          <mxGeometry x="60" width="60" height="30" as="geometry">
            <mxRectangle width="60" height="30" as="alternateBounds" />
          </mxGeometry>
        </mxCell>
        <mxCell id="Nil3mYl1eCRsG-_xPEcp-47" value="" style="shape=table;startSize=0;container=1;collapsible=0;childLayout=tableLayout;" vertex="1" parent="1">
          <mxGeometry x="170" y="100" width="120" height="30" as="geometry" />
        </mxCell>
        <mxCell id="Nil3mYl1eCRsG-_xPEcp-48" value="" style="shape=tableRow;horizontal=0;startSize=0;swimlaneHead=0;swimlaneBody=0;strokeColor=inherit;top=0;left=0;bottom=0;right=0;collapsible=0;dropTarget=0;fillColor=none;points=[[0,0.5],[1,0.5]];portConstraint=eastwest;" vertex="1" parent="Nil3mYl1eCRsG-_xPEcp-47">
          <mxGeometry width="120" height="30" as="geometry" />
        </mxCell>
        <mxCell id="Nil3mYl1eCRsG-_xPEcp-49" value="&lt;u&gt;C&lt;/u&gt;" style="shape=partialRectangle;html=1;whiteSpace=wrap;connectable=0;strokeColor=inherit;overflow=hidden;fillColor=none;top=0;left=0;bottom=0;right=0;pointerEvents=1;" vertex="1" parent="Nil3mYl1eCRsG-_xPEcp-48">
          <mxGeometry width="60" height="30" as="geometry">
            <mxRectangle width="60" height="30" as="alternateBounds" />
          </mxGeometry>
        </mxCell>
        <mxCell id="Nil3mYl1eCRsG-_xPEcp-50" value="&lt;u&gt;B&lt;/u&gt;" style="shape=partialRectangle;html=1;whiteSpace=wrap;connectable=0;strokeColor=inherit;overflow=hidden;fillColor=none;top=0;left=0;bottom=0;right=0;pointerEvents=1;" vertex="1" parent="Nil3mYl1eCRsG-_xPEcp-48">
          <mxGeometry x="60" width="60" height="30" as="geometry">
            <mxRectangle width="60" height="30" as="alternateBounds" />
          </mxGeometry>
        </mxCell>
        <mxCell id="Nil3mYl1eCRsG-_xPEcp-51" value="" style="endArrow=classic;html=1;rounded=0;entryX=0.252;entryY=-0.014;entryDx=0;entryDy=0;entryPerimeter=0;exitX=0.742;exitY=-0.067;exitDx=0;exitDy=0;exitPerimeter=0;" edge="1" parent="1">
          <mxGeometry width="50" height="50" relative="1" as="geometry">
            <mxPoint x="90" y="98" as="sourcePoint" />
            <mxPoint x="201" y="100" as="targetPoint" />
            <Array as="points">
              <mxPoint x="91" y="99" />
              <mxPoint x="91" y="60" />
              <mxPoint x="201" y="60" />
            </Array>
          </mxGeometry>
        </mxCell>
        <mxCell id="Nil3mYl1eCRsG-_xPEcp-52" value="A" style="rounded=0;whiteSpace=wrap;html=1;" vertex="1" parent="1">
          <mxGeometry x="130" y="400" width="30" height="30" as="geometry" />
        </mxCell>
        <mxCell id="Nil3mYl1eCRsG-_xPEcp-53" value="" style="shape=table;startSize=0;container=1;collapsible=0;childLayout=tableLayout;" vertex="1" parent="1">
          <mxGeometry x="10" y="240" width="120" height="30" as="geometry" />
        </mxCell>
        <mxCell id="Nil3mYl1eCRsG-_xPEcp-54" value="" style="shape=tableRow;horizontal=0;startSize=0;swimlaneHead=0;swimlaneBody=0;strokeColor=inherit;top=0;left=0;bottom=0;right=0;collapsible=0;dropTarget=0;fillColor=none;points=[[0,0.5],[1,0.5]];portConstraint=eastwest;" vertex="1" parent="Nil3mYl1eCRsG-_xPEcp-53">
          <mxGeometry width="120" height="30" as="geometry" />
        </mxCell>
        <mxCell id="Nil3mYl1eCRsG-_xPEcp-55" value="&lt;u&gt;A&lt;/u&gt;" style="shape=partialRectangle;html=1;whiteSpace=wrap;connectable=0;strokeColor=inherit;overflow=hidden;fillColor=none;top=0;left=0;bottom=0;right=0;pointerEvents=1;" vertex="1" parent="Nil3mYl1eCRsG-_xPEcp-54">
          <mxGeometry width="60" height="30" as="geometry">
            <mxRectangle width="60" height="30" as="alternateBounds" />
          </mxGeometry>
        </mxCell>
        <mxCell id="Nil3mYl1eCRsG-_xPEcp-56" value="D" style="shape=partialRectangle;html=1;whiteSpace=wrap;connectable=0;strokeColor=inherit;overflow=hidden;fillColor=none;top=0;left=0;bottom=0;right=0;pointerEvents=1;" vertex="1" parent="Nil3mYl1eCRsG-_xPEcp-54">
          <mxGeometry x="60" width="60" height="30" as="geometry">
            <mxRectangle width="60" height="30" as="alternateBounds" />
          </mxGeometry>
        </mxCell>
        <mxCell id="Nil3mYl1eCRsG-_xPEcp-57" value="" style="shape=table;startSize=0;container=1;collapsible=0;childLayout=tableLayout;" vertex="1" parent="1">
          <mxGeometry x="200" y="240" width="120" height="35" as="geometry" />
        </mxCell>
        <mxCell id="Nil3mYl1eCRsG-_xPEcp-58" value="" style="shape=tableRow;horizontal=0;startSize=0;swimlaneHead=0;swimlaneBody=0;strokeColor=inherit;top=0;left=0;bottom=0;right=0;collapsible=0;dropTarget=0;fillColor=none;points=[[0,0.5],[1,0.5]];portConstraint=eastwest;" vertex="1" parent="Nil3mYl1eCRsG-_xPEcp-57">
          <mxGeometry width="120" height="35" as="geometry" />
        </mxCell>
        <mxCell id="Nil3mYl1eCRsG-_xPEcp-59" value="&lt;u&gt;A&lt;/u&gt;" style="shape=partialRectangle;html=1;whiteSpace=wrap;connectable=0;strokeColor=inherit;overflow=hidden;fillColor=none;top=0;left=0;bottom=0;right=0;pointerEvents=1;" vertex="1" parent="Nil3mYl1eCRsG-_xPEcp-58">
          <mxGeometry width="60" height="35" as="geometry">
            <mxRectangle width="60" height="35" as="alternateBounds" />
          </mxGeometry>
        </mxCell>
        <mxCell id="Nil3mYl1eCRsG-_xPEcp-60" value="E" style="shape=partialRectangle;html=1;whiteSpace=wrap;connectable=0;strokeColor=inherit;overflow=hidden;fillColor=none;top=0;left=0;bottom=0;right=0;pointerEvents=1;" vertex="1" parent="Nil3mYl1eCRsG-_xPEcp-58">
          <mxGeometry x="60" width="60" height="35" as="geometry">
            <mxRectangle width="60" height="35" as="alternateBounds" />
          </mxGeometry>
        </mxCell>
      </root>
    </mxGraphModel>
  </diagram>
</mxfile>
